PathFileType	4	(X/Y/Z)	s08c0403.trc
DataRate	CameraRate	NumFrames	NumMarkers	Units	OrigDataRate	OrigDataStartFrame	OrigNumFrames
200	200	5	50	mm	200	250	2000
Frame#	Time	racr			lacr			c7			jug			rlel			rdr			llel			ldr			s2			lic			ric			lasi			rasi			rpsi			lpsi			rgt			lgt			rth1			rth2			rth3			rth4			rlfc			rmfc			rsh1			rsh2			rsh3			rsh4			rlmal			rmmal			rcal			rtoe			rmt5			lth1			lth2			lth4			lth3			llfc			lmfc			llmal			lmmal			lcal			lmt5			lsh1			lsh2			lsh3			lsh4			ltoe			SBIKE			LBIKE			RBIKE			
		X1	Y1	Z1	X2	Y2	Z2	X3	Y3	Z3	X4	Y4	Z4	X5	Y5	Z5	X6	Y6	Z6	X7	Y7	Z7	X8	Y8	Z8	X9	Y9	Z9	X10	Y10	Z10	X11	Y11	Z11	X12	Y12	Z12	X13	Y13	Z13	X14	Y14	Z14	X15	Y15	Z15	X16	Y16	Z16	X17	Y17	Z17	X18	Y18	Z18	X19	Y19	Z19	X20	Y20	Z20	X21	Y21	Z21	X22	Y22	Z22	X23	Y23	Z23	X24	Y24	Z24	X25	Y25	Z25	X26	Y26	Z26	X27	Y27	Z27	X28	Y28	Z28	X29	Y29	Z29	X30	Y30	Z30	X31	Y31	Z31	X32	Y32	Z32	X33	Y33	Z33	X34	Y34	Z34	X35	Y35	Z35	X36	Y36	Z36	X37	Y37	Z37	X38	Y38	Z38	X39	Y39	Z39	X40	Y40	Z40	X41	Y41	Z41	X42	Y42	Z42	X43	Y43	Z43	X44	Y44	Z44	X45	Y45	Z45	X46	Y46	Z46	X47	Y47	Z47	X48	Y48	Z48	X49	Y49	Z49	X50	Y50	Z50	
250	1.2500	463.724092	1379.942234	-61.870401	474.031433	1393.307444	-409.811558	444.927468	1454.740466	-241.256513	431.196839	1299.284347	-232.847225	548.524687	1142.179288	6.424542	759.524823	927.256663	-64.817996	586.934532	1161.869654	-472.593911	760.345427	922.879878	-434.849980	-88.646433	1193.872416	-258.570507	89.606128	1170.473946	-395.905967	66.514546	1212.929734	-91.861818	109.291930	1115.589454	-364.606485	89.019598	1154.450983	-121.321994	-62.279538	1241.217886	-210.438315	-51.899291	1232.697275	-305.464105	-7.477579	1120.581359	-43.606090	2.003779	1052.662751	-423.090333	142.938736	1043.023400	-36.202986	231.037185	1031.571187	-37.660301	300.041059	978.016442	-39.617840	244.494500	1062.930749	-52.883759	400.346300	911.703665	-59.840820	384.422327	901.222708	-171.110472	325.633621	805.923189	-30.551725	306.878079	719.858926	-50.523096	248.900529	656.241464	-57.210024	332.337563	712.621867	-83.059747	188.996625	553.907623	-69.193763	206.504468	576.526815	-155.859645	107.324330	522.841483	-112.180272	406.796172	523.820108	-109.029220	317.866047	490.226175	-42.232735	43.007108	923.263476	-438.766898	86.459331	847.511823	-434.049974	120.805471	856.821196	-424.154288	85.057809	758.645171	-427.892738	112.072163	635.158292	-401.106536	109.089230	613.524884	-299.262340	62.819682	218.936076	-396.732387	86.500814	242.736025	-312.681982	1.110340	183.284264	-356.978933	212.718436	154.143188	-419.594661	90.357514	508.839265	-428.516950	102.201450	425.604286	-409.410976	74.301314	342.111461	-411.553490	122.830574	428.000804	-376.395894	289.967776	195.300315	-351.610210	-205.894080	917.036166	-231.453486	-9.088521	79.966965	-426.545643	-8.827932	80.067637	-28.156251	
251	1.2550	463.653884	1379.807601	-61.838135	474.104735	1393.311272	-409.605535	444.889935	1454.724347	-241.133990	431.157525	1299.236557	-232.793137	548.509519	1142.139195	6.571940	759.502041	927.259741	-64.752956	587.098167	1161.917059	-472.619431	760.347238	922.821227	-434.818735	-88.696458	1193.881906	-258.651538	89.551615	1170.490401	-395.893586	66.407057	1212.987795	-91.913800	109.274606	1115.589967	-364.618815	88.942057	1154.493629	-121.362787	-62.381505	1241.256736	-210.496007	-51.956303	1232.714307	-305.517632	-7.591092	1120.628216	-43.639186	1.986512	1052.652490	-423.122050	142.829655	1043.103067	-36.177830	230.946797	1031.663033	-37.607875	299.929115	978.169369	-39.497899	244.384192	1063.017194	-52.819629	400.253137	911.790233	-59.722689	384.349041	901.331579	-171.058416	325.470237	806.039011	-30.446712	306.673701	719.968552	-50.452832	248.689968	656.427354	-57.174394	332.187420	712.781090	-82.938582	188.734341	554.081360	-69.197569	206.319139	576.631349	-155.838940	107.067250	523.059876	-112.225404	406.528291	523.856216	-109.016850	317.560550	490.307361	-42.231581	43.025953	923.278543	-438.837379	86.489416	847.546539	-434.128718	120.842786	856.871291	-424.240959	85.141738	758.676869	-427.982623	112.218909	635.220370	-401.167605	109.293222	613.560639	-299.310095	63.239987	218.993711	-396.753259	86.921844	242.802936	-312.702932	1.520639	183.450953	-357.007554	213.094753	154.040265	-419.595019	90.572468	508.890755	-428.542967	102.496953	425.662239	-409.457313	74.637848	342.152289	-411.561810	123.130534	427.925020	-376.319982	290.404020	195.110068	-351.646996	-205.973006	916.999927	-231.513177	-9.089718	79.970862	-426.563122	-8.826647	80.059040	-28.162858	
252	1.2600	463.577492	1379.748449	-61.847069	474.193968	1393.292431	-409.441351	444.846202	1454.692099	-240.982545	431.155083	1299.192314	-232.738216	548.519571	1142.115839	6.628396	759.496727	927.239974	-64.736490	587.262328	1161.962930	-472.530404	760.342915	922.750027	-434.707233	-88.741980	1193.902135	-258.763862	89.537606	1170.482948	-395.925379	66.296122	1213.033856	-91.924103	109.251277	1115.623077	-364.630506	88.829035	1154.529048	-121.375798	-62.463824	1241.294471	-210.586549	-51.985961	1232.739721	-305.638078	-7.703890	1120.690640	-43.679658	1.977877	1052.654155	-423.158379	142.714214	1043.178453	-36.169137	230.799945	1031.729911	-37.532905	299.797305	978.270397	-39.411173	244.285090	1063.116201	-52.756946	400.166721	911.885619	-59.562359	384.277670	901.437202	-171.015916	325.341454	806.175039	-30.371976	306.498426	720.080169	-50.400874	248.483116	656.567144	-57.125715	331.976699	712.823465	-82.867179	188.460074	554.314547	-69.185706	206.117161	576.769996	-155.818918	106.769473	523.320396	-112.199396	406.242667	523.875807	-109.001672	317.241684	490.405203	-42.235051	43.000477	923.345554	-438.807144	86.541687	847.581226	-434.203443	120.892099	856.907738	-424.301546	85.211719	758.702946	-428.080969	112.380319	635.165676	-401.222424	109.471797	613.596921	-299.337467	63.681490	219.044691	-396.805300	87.452629	242.881483	-312.755717	1.960492	183.614764	-357.031636	213.510767	153.911249	-419.633884	90.810348	508.942414	-428.578582	102.826590	425.714318	-409.466740	75.015214	342.217548	-411.610355	123.456390	428.066213	-376.390790	290.822130	194.934556	-351.701530	-201.090487	920.925111	-226.239029	-9.090846	79.960681	-426.554854	-8.833072	80.068979	-28.181429	
253	1.2650	463.534736	1379.662937	-61.762474	474.235718	1393.273592	-409.276883	444.804919	1454.640930	-240.846441	431.115769	1299.144525	-232.684128	548.563009	1142.118670	6.693088	759.496315	927.222730	-64.717444	587.458882	1162.018449	-472.317444	760.350147	922.693029	-434.652235	-88.794249	1193.901937	-258.865873	89.559910	1170.531618	-395.991543	66.180849	1213.076403	-91.977271	109.215452	1115.643370	-364.657691	88.736735	1154.567989	-121.406597	-62.554070	1241.340227	-210.697072	-52.048494	1232.756022	-305.706880	-7.847578	1120.751343	-43.752434	1.971782	1052.672638	-423.229103	142.587362	1043.271458	-36.124523	230.709527	1031.792812	-37.482291	299.695105	978.349703	-39.331440	244.159966	1063.214221	-52.680207	400.076117	911.986889	-59.445080	384.208643	901.582954	-170.915657	325.194815	806.315121	-30.255645	306.282908	720.205862	-50.351948	248.266318	656.703802	-57.087121	331.830178	712.978005	-82.751656	188.194515	554.537444	-69.201613	205.902865	576.944771	-155.799504	106.472181	523.579714	-112.209753	405.956884	523.879554	-108.983170	316.923106	490.528978	-42.220238	43.025824	923.363994	-438.867933	86.583378	847.604478	-434.257674	120.948390	856.966840	-424.360684	85.300890	758.721510	-428.133829	112.548091	635.236859	-401.274256	109.711238	613.683199	-299.394761	64.138201	219.109724	-396.803300	87.967737	242.833547	-312.789411	2.421395	183.731215	-356.985881	213.887814	153.770490	-419.625830	91.093886	508.996558	-428.600997	103.161812	425.786397	-409.482622	75.398455	342.242247	-411.632192	123.775118	428.240414	-376.555624	291.252178	194.738449	-351.692019	-201.088119	920.945526	-226.243008	-9.095401	79.973247	-426.564534	-8.815319	80.041465	-28.179770	
254	1.2700	463.442827	1379.581377	-61.764618	474.281263	1393.239007	-409.173815	444.791158	1454.583951	-240.765853	431.091198	1299.118964	-232.613126	548.592318	1142.103992	6.720167	759.490141	927.203988	-64.710250	587.640154	1162.079246	-472.023753	760.379149	922.682959	-434.574968	-88.838467	1193.902117	-258.966542	89.538310	1170.517951	-396.006293	66.052839	1213.123848	-92.028716	109.188615	1115.663334	-364.664673	88.623272	1154.589148	-121.447676	-62.636383	1241.387687	-210.823583	-52.100715	1232.777696	-305.806196	-7.984140	1120.812128	-43.783978	1.964538	1052.649742	-423.237781	142.478066	1043.358779	-36.103903	230.597808	1031.845566	-37.433561	299.586548	978.449177	-39.240586	244.064258	1063.302883	-52.629033	400.002804	912.092480	-59.283250	384.149344	901.700235	-170.849822	325.044117	806.447772	-30.160329	306.097804	720.347394	-50.283648	248.036105	656.859210	-57.023849	331.630112	713.115161	-82.642451	187.924221	554.764828	-69.182549	205.736693	577.206479	-155.808611	106.202912	523.887743	-112.288711	405.626051	523.898526	-108.961327	316.624647	490.635968	-42.220792	43.043132	923.387485	-438.907462	86.655675	847.640942	-434.331398	121.015322	857.017253	-424.414825	85.383727	758.763199	-428.202879	112.751826	635.281702	-401.299712	109.926721	613.753964	-299.430090	64.588944	219.138307	-396.785586	88.559024	242.713424	-312.861541	2.856180	183.885130	-356.976368	214.295149	153.617960	-419.626235	91.392313	509.067736	-428.653533	103.493092	425.803903	-409.518736	75.781857	342.311566	-411.657375	124.128837	428.319480	-376.533211	291.715868	194.509149	-351.710140	-201.025171	921.022516	-226.070328	-9.089787	79.986778	-426.544661	-8.821145	80.080107	-28.166403	
